<svg xmlns="http://www.w3.org/2000/svg" width="100%" viewBox="0 0 188 113" height="150" xmlns:v="https://vecta.io/nano"><path fill="#da1b36" d="M131 114H1L1.343 2.365c1.004-.071 1.696.394 2.323.935l111.449 96.39c5.386 4.665 10.595 9.534 15.886 14.309z"/><path fill="#da1b35" d="M59 1h130l-.042 109c-.002 1.334-.624 2.667-1.453 3.641-1.725-1.839-2.777-3.524-4.211-4.768l-77.714-67.257L59 1z"/><path fill="#030303" d="M141 114c-.444 0-.889 0-1.663-.362-1.416-1.729-2.318-3.307-3.615-4.431L14.63 4.41C13.567 3.489 12.869 2.146 12 1l37.441.345 65.701 56.86 60.389 52.298c.897.781 1.141 2.312 1.301 3.18-11.645-.413-22.902-.527-34.158-.574-.557-.002-1.115.58-1.673.89z"/><path d="M11.517 1c1.352 1.146 2.05 2.489 3.113 3.41l121.091 104.797c1.297 1.123 2.199 2.702 3.282 4.431-2.374.362-4.745.362-7.559.362-5.735-4.775-10.944-9.644-16.33-14.309L3.666 3.301C3.04 2.76 2.347 2.294 1.343 1.897L11.517 1zM177.22 113.996c-.548-1.181-.793-2.712-1.69-3.493l-60.389-52.298-65.232-56.86C52.7 1 55.4 1 58.55 1l47.029 40.616 77.714 67.257c1.434 1.244 2.486 2.929 3.711 4.768-3.035.359-6.066.359-9.495.358l-.289-.003z" fill="#faf6f7"/><path fill="#312b2c" d="M176.832 113.684c.388.312.279.315.223.315l-35.586.001c.089-.31.648-.892 1.205-.89l34.158.574z"/></svg>